<?xml version="1.0" encoding="UTF-8"?>
<!DOCTYPE svg PUBLIC "-//W3C//DTD SVG 1.1//EN" "http://www.w3.org/Graphics/SVG/1.1/DTD/svg11.dtd">
<!-- Creator: CorelDRAW X7 -->
<svg xmlns="http://www.w3.org/2000/svg" xml:space="preserve" width="574px" height="195px" version="1.1" style="shape-rendering:geometricPrecision; text-rendering:geometricPrecision; image-rendering:optimizeQuality; fill-rule:evenodd; clip-rule:evenodd"
viewBox="0 0 410 139"
 xmlns:xlink="http://www.w3.org/1999/xlink">
 <defs>
  <style type="text/css">
   <![CDATA[
    .str0 {stroke:#989999;stroke-width:0.643657}
    .fil2 {fill:#989999}
    .fil3 {fill:#FEFEFE;fill-rule:nonzero}
    .fil0 {fill:#3996DF;fill-rule:nonzero}
    .fil1 {fill:#D81B1D;fill-rule:nonzero}
   ]]>
  </style>
 </defs>
 <g id="Слой_x0020_1">
  <metadata id="CorelCorpID_0Corel-Layer"/>
  <path class="fil0" d="M333 42c2,0 3,1 4,2 2,1 2,2 2,4 0,2 0,3 -2,4 -1,1 -2,2 -4,2 -2,0 -4,-1 -5,-2 -1,-1 -2,-2 -2,-4 0,-2 1,-3 2,-4 1,-1 3,-2 5,-2z"/>
  <path class="fil0" d="M319 54l-35 0 0 -8 16 -17c4,-5 6,-8 6,-11 0,-2 0,-4 -1,-5 -1,-1 -2,-2 -4,-2 -2,0 -4,1 -5,2 -1,2 -1,4 -1,6l-12 0c0,-3 1,-6 2,-8 2,-3 4,-5 7,-7 2,-1 6,-2 9,-2 5,0 10,1 13,4 3,2 4,6 4,11 0,2 0,4 -1,6 -1,2 -2,4 -3,6 -2,2 -5,4 -8,8l-7 8 20 0 0 9z"/>
  <polygon class="fil0" points="278,9 259,54 246,54 265,12 241,12 241,3 278,3 "/>
  <path class="fil0" d="M219 46c1,0 2,0 3,-1 1,-1 2,-1 2,-2l0 -6 -3 0c-4,0 -6,2 -6,5 0,1 0,2 1,3 1,1 2,1 3,1zm7 8c0,-1 -1,-2 -1,-4 -2,3 -5,4 -9,4 -4,0 -7,-1 -9,-3 -3,-2 -4,-5 -4,-8 0,-4 1,-7 5,-9 3,-2 7,-3 13,-3l3 0 0 -2c0,-4 -1,-6 -4,-6 -3,0 -4,2 -4,4l-12 0c0,-3 1,-6 5,-8 3,-3 7,-4 11,-4 5,0 9,1 12,4 3,2 4,5 4,9l0 17c0,4 1,6 2,8l0 1 -12 0z"/>
  <path class="fil0" d="M154 16l1 4c2,-3 6,-5 10,-5 5,0 8,2 10,6 3,-4 6,-6 11,-6 8,0 12,5 12,14l0 25 -12 0 0 -24c0,-2 0,-4 -1,-4 0,-1 -2,-2 -3,-2 -3,0 -4,1 -6,3l0 1 0 26 -11 0 0 -24c0,-2 -1,-4 -1,-4 -1,-1 -2,-2 -4,-2 -2,0 -4,1 -5,3l0 27 -12 0 0 -38 11 0z"/>
  <path class="fil0" d="M126 43c0,-1 0,-2 -1,-2 -1,-1 -3,-2 -6,-2 -3,-1 -6,-2 -8,-3 -1,-1 -3,-2 -4,-4 -1,-1 -1,-3 -1,-5 0,-3 1,-6 4,-8 3,-3 6,-4 11,-4 5,0 9,1 12,4 3,2 5,5 5,8l-12 0c0,-3 -2,-4 -5,-4 -1,0 -2,0 -3,1 -1,1 -1,1 -1,2 0,2 0,2 1,3 1,1 3,1 5,2 2,0 4,1 6,1 6,2 9,6 9,11 0,3 -2,6 -5,8 -3,2 -7,3 -12,3 -3,0 -6,0 -9,-1 -2,-2 -4,-3 -5,-5 -2,-2 -3,-4 -3,-6l11 0c0,1 1,3 2,3 1,1 3,2 4,2 2,0 3,-1 4,-1 1,-1 1,-2 1,-3z"/>
  <path class="fil0" d="M82 46c2,0 3,0 4,-1 1,-1 2,-1 2,-2l0 -6 -3 0c-4,0 -6,2 -6,5 0,1 0,2 1,3 0,1 1,1 2,1zm8 8c-1,-1 -1,-2 -1,-4 -2,3 -6,4 -9,4 -4,0 -7,-1 -9,-3 -3,-2 -4,-5 -4,-8 0,-4 1,-7 4,-9 3,-2 8,-3 14,-3l3 0 0 -2c0,-4 -1,-6 -4,-6 -3,0 -5,2 -5,4l-11 0c0,-3 1,-6 4,-8 3,-3 7,-4 12,-4 5,0 9,1 12,4 2,2 4,5 4,9l0 17c0,4 1,6 2,8l0 1 -12 0z"/>
  <polygon class="fil1" points="59,54 47,54 47,0 59,0 "/>
  <path class="fil0" d="M12 27l8 0c3,0 5,-1 6,-2 1,-1 2,-3 2,-5 0,-2 -1,-4 -2,-6 -1,-1 -3,-2 -5,-2l-9 0 0 15zm0 9l0 18 -12 0 0 -51 20 0c4,0 8,1 11,2 3,1 5,3 7,6 1,3 2,6 2,9 0,5 -2,9 -5,12 -4,3 -9,4 -15,4l-8 0z"/>
  <path class="fil2 str0" d="M0 63l42 0 4 6 2 3 -48 0 0 -9zm63 0l345 0 0 9 -352 0 2 -3 5 -6z"/>
  <polygon class="fil1" points="59,62 53,70 47,62 47,57 59,57 "/>
  <path class="fil0" d="M372 26l-4 0c-3,0 -6,1 -7,4l0 23 -12 0 0 -37 12 0 0 5c2,-4 5,-6 8,-6 1,0 3,0 3,0l0 11z"/>
  <path id="1" class="fil0" d="M399 49c-2,4 -6,5 -10,5 -4,0 -7,-1 -10,-3 -2,-3 -3,-6 -3,-11l0 -24 12 0 0 24c0,3 2,5 5,5 2,0 4,-1 6,-3l0 -26 11 0 0 37 -11 0 0 -4z"/>
  <path class="fil3" d="M16 88l0 16 -3 0 0 -13 -5 0 0 6c-1,2 -1,4 -2,5 0,1 -2,2 -3,2l-1 0 0 -2 1 0c0,0 1,-1 1,-2 1,-1 1,-2 1,-5l0 -7 11 0z"/>
  <path id="1" class="fil3" d="M30 104c0,0 0,-1 0,-2 -2,2 -3,2 -5,2 -1,0 -3,0 -4,-1 -1,-1 -1,-2 -1,-3 0,-2 1,-3 2,-4 1,-1 3,-1 5,-1l3 0 0 -2c0,-1 -1,-1 -1,-2 -1,0 -2,-1 -3,-1 -1,0 -1,1 -2,1 -1,1 -1,1 -1,2l-3 0c0,-1 1,-2 1,-3 1,0 1,-1 2,-1 1,-1 2,-1 4,-1 1,0 3,1 4,1 1,1 1,3 1,4l0 7c0,2 1,3 1,4l0 0 -3 0zm-4 -2c0,0 1,0 2,-1 1,0 1,-1 2,-1l0 -3 -2 0c-4,0 -5,0 -5,2 0,1 0,2 0,2 1,1 2,1 3,1z"/>
  <path id="2" class="fil3" d="M45 93c0,-1 0,-2 -1,-2 0,0 -1,-1 -2,-1 -1,0 -2,1 -2,1 -1,1 -1,1 -1,2l-3 0c0,-2 1,-3 2,-4 1,0 2,-1 4,-1 2,0 3,1 4,1 1,1 2,2 2,4 0,0 0,1 -1,2 0,0 -1,1 -2,1 2,1 3,2 3,4 0,1 0,2 -1,3 -2,1 -3,1 -5,1 -2,0 -3,0 -4,-1 -2,-1 -2,-2 -2,-4l3 0c0,1 0,2 1,2 0,1 1,1 2,1 1,0 2,0 3,0 0,-1 1,-2 1,-2 0,-1 -1,-2 -1,-2 -1,-1 -2,-1 -3,-1l-2 0 0 -2 2 0c2,0 3,-1 3,-2z"/>
  <path id="3" class="fil3" d="M58 104c-2,0 -4,0 -5,-2 -1,-1 -2,-3 -2,-5l0 -1c0,-1 0,-3 1,-4 1,-1 1,-2 2,-3 2,-1 3,-1 4,-1 2,0 4,1 5,2 1,1 1,3 1,6l0 1 -10 0c0,2 0,3 1,4 1,1 2,1 3,1 1,0 2,0 3,0 0,-1 1,-1 2,-2l1 1c-1,2 -3,3 -6,3zm0 -14c-1,0 -2,1 -3,2 -1,0 -1,1 -1,3l8 0 0 0c0,-2 -1,-3 -1,-4 -1,0 -2,-1 -3,-1z"/>
  <path id="4" class="fil3" d="M81 96c0,3 -1,5 -2,6 -1,2 -2,2 -4,2 -2,0 -4,0 -5,-1l0 7 -2 0 0 -22 2 0 0 2c1,-1 3,-2 5,-2 2,0 3,1 4,2 1,2 2,4 2,6l0 0zm-3 0c0,-2 0,-3 -1,-4 -1,-1 -2,-2 -3,-2 -2,0 -3,1 -4,3l0 7c1,2 2,2 4,2 1,0 2,0 3,-1 1,-1 1,-3 1,-5z"/>
  <polygon id="5" class="fil3" points="97,104 94,104 94,97 87,97 87,104 84,104 84,88 87,88 87,95 94,95 94,88 97,88 "/>
  <path id="6" class="fil3" d="M104 94l4 0c2,0 4,0 5,1 1,1 1,2 1,4 0,2 0,3 -1,4 -1,1 -3,1 -5,1l-6 0 0 -16 2 0 0 6zm16 10l-3 0 0 -16 3 0 0 16zm-16 -8l0 6 4 0c1,0 2,0 3,-1 0,0 1,-1 1,-2 0,-1 -1,-2 -1,-2 -1,-1 -2,-1 -3,-1l-4 0z"/>
  <path id="7" class="fil3" d="M131 104c-2,0 -4,0 -5,-2 -1,-1 -2,-3 -2,-5l0 -1c0,-1 0,-3 1,-4 0,-1 1,-2 2,-3 1,-1 2,-1 4,-1 2,0 3,1 5,2 1,1 1,3 1,6l0 1 -10 0c0,2 0,3 1,4 1,1 2,1 3,1 1,0 2,0 3,0 0,-1 1,-1 1,-2l2 1c-1,2 -3,3 -6,3zm0 -14c-1,0 -2,1 -3,2 -1,0 -1,1 -1,3l8 0 0 0c-1,-2 -1,-3 -2,-4 0,0 -1,-1 -2,-1z"/>
  <polygon id="8" class="fil3" points="158,88 161,88 161,104 158,104 158,93 151,104 148,104 148,88 151,88 151,100 "/>
  <polygon id="9" class="fil3" points="185,104 182,104 182,91 175,91 175,104 173,104 173,88 185,88 "/>
  <path id="10" class="fil3" d="M202 88l0 16 -2 0 0 -13 -6 0 0 6c0,2 -1,4 -1,5 -1,1 -2,2 -4,2l-1 0 0 -2 1 0c1,0 1,-1 2,-2 0,-1 0,-2 0,-5l1 -7 10 0z"/>
  <path id="11" class="fil3" d="M216 104c0,0 0,-1 0,-2 -1,2 -3,2 -4,2 -2,0 -3,0 -4,-1 -1,-1 -2,-2 -2,-3 0,-2 1,-3 2,-4 1,-1 3,-1 5,-1l3 0 0 -2c0,-1 0,-1 -1,-2 0,0 -1,-1 -2,-1 -1,0 -2,1 -3,1 0,1 -1,1 -1,2l-2 0c0,-1 0,-2 0,-3 1,0 2,-1 3,-1 1,-1 2,-1 3,-1 2,0 3,1 4,1 1,1 2,3 2,4l0 7c0,2 0,3 0,4l0 0 -3 0zm-4 -2c1,0 2,0 2,-1 1,0 2,-1 2,-1l0 -3 -2 0c-3,0 -5,0 -5,2 0,1 0,2 1,2 0,1 1,1 2,1z"/>
  <path id="12" class="fil3" d="M232 93c0,-1 -1,-2 -1,-2 -1,0 -2,-1 -3,-1 -1,0 -1,1 -2,1 -1,1 -1,1 -1,2l-3 0c0,-2 1,-3 2,-4 1,0 3,-1 4,-1 2,0 4,1 5,1 1,1 1,2 1,4 0,0 0,1 0,2 -1,0 -1,1 -2,1 2,1 3,2 3,4 0,1 -1,2 -2,3 -1,1 -3,1 -5,1 -1,0 -3,0 -4,-1 -1,-1 -2,-2 -2,-4l3 0c0,1 0,2 1,2 1,1 1,1 2,1 1,0 2,0 3,0 1,-1 1,-2 1,-2 0,-1 0,-2 -1,-2 0,-1 -1,-1 -2,-1l-3 0 0 -2 3 0c2,0 3,-1 3,-2z"/>
  <polygon id="13" class="fil3" points="247,101 252,88 256,88 256,104 253,104 253,93 248,104 246,104 241,92 241,104 238,104 238,88 242,88 "/>
  <path id="14" class="fil3" d="M267 104c-2,0 -4,0 -6,-2 -1,-1 -2,-3 -2,-5l0 -1c0,-1 1,-3 1,-4 1,-1 2,-2 3,-3 1,-1 2,-1 3,-1 2,0 4,1 5,2 1,1 2,3 2,6l0 1 -11 0c0,2 1,3 2,4 0,1 1,1 3,1 1,0 2,0 2,0 1,-1 1,-1 2,-2l2 1c-2,2 -4,3 -6,3zm-1 -14c-1,0 -2,1 -2,2 -1,0 -2,1 -2,3l8 0 0 0c0,-2 0,-3 -1,-4 -1,0 -2,-1 -3,-1z"/>
  <polygon id="15" class="fil3" points="289,104 286,104 286,97 279,97 279,104 276,104 276,88 279,88 279,95 286,95 286,88 289,88 "/>
  <polygon id="16" class="fil3" points="306,104 303,104 303,97 296,97 296,104 293,104 293,88 296,88 296,95 303,95 303,88 306,88 "/>
  <path id="17" class="fil3" d="M313 94l4 0c2,0 4,0 5,1 1,1 1,2 1,4 0,2 0,3 -1,4 -2,1 -3,1 -5,1l-6 0 0 -16 2 0 0 6zm16 10l-3 0 0 -16 3 0 0 16zm-16 -8l0 6 4 0c1,0 2,0 3,-1 0,0 0,-1 0,-2 0,-1 0,-2 0,-2 -1,-1 -2,-1 -3,-1l-4 0z"/>
  <path id="18" class="fil3" d="M340 104c-2,0 -4,0 -5,-2 -2,-1 -2,-3 -2,-5l0 -1c0,-1 0,-3 1,-4 0,-1 1,-2 2,-3 1,-1 2,-1 4,-1 2,0 3,1 4,2 2,1 2,3 2,6l0 1 -11 0c0,2 1,3 2,4 1,1 2,1 3,1 1,0 2,0 3,0 0,-1 1,-1 1,-2l2 1c-1,2 -3,3 -6,3zm0 -14c-1,0 -2,1 -3,2 -1,0 -1,1 -1,3l7 0 0 0c0,-2 0,-3 -1,-4 0,0 -1,-1 -2,-1z"/>
  <path id="19" class="fil3" d="M9 131c1,0 2,0 3,-1 1,0 1,-1 1,-2l3 0c0,1 -1,2 -1,3 -1,1 -2,1 -3,2 0,0 -1,0 -3,0 -2,0 -3,0 -5,-2 -1,-1 -2,-3 -2,-6l0 0c0,-2 1,-3 1,-4 1,-1 2,-2 3,-3 1,-1 2,-1 3,-1 2,0 4,1 5,2 1,1 2,2 2,4l-3 0c0,-1 0,-2 -1,-3 -1,0 -2,-1 -3,-1 -1,0 -2,1 -3,2 0,1 -1,2 -1,4l0 1c0,1 1,3 1,4 1,1 2,1 3,1z"/>
  <polygon id="20" class="fil3" points="30,120 25,120 25,133 22,133 22,120 17,120 17,117 30,117 "/>
  <path id="21" class="fil3" d="M43 133c-1,0 -1,-1 -1,-2 -1,2 -3,2 -4,2 -2,0 -3,0 -4,-1 -1,-1 -2,-2 -2,-3 0,-2 1,-3 2,-4 1,-1 3,-1 6,-1l2 0 0 -2c0,-1 0,-1 -1,-2 0,0 -1,-1 -2,-1 -1,0 -2,1 -3,1 0,0 -1,1 -1,2l-2 0c0,-1 0,-2 1,-3 0,0 1,-1 2,-1 1,-1 2,-1 3,-1 2,0 3,1 4,1 1,1 2,3 2,4l0 7c0,2 0,3 0,4l0 0 -2 0zm-5 -2c1,0 2,0 2,-1 1,0 2,-1 2,-1l0 -4 -2 0c-3,0 -5,1 -5,3 0,1 0,2 1,2 0,1 1,1 2,1z"/>
  <polygon id="22" class="fil3" points="62,133 59,133 59,126 52,126 52,133 49,133 49,117 52,117 52,124 59,124 59,117 62,117 "/>
  <polygon id="23" class="fil3" points="71,126 69,126 69,133 66,133 66,117 69,117 69,124 71,124 76,117 79,117 73,125 80,133 77,133 "/>
  <polygon id="24" class="fil3" points="93,117 95,117 95,133 93,133 93,122 85,133 83,133 83,117 85,117 85,129 "/>
  <path id="25" class="fil3" d="M120 125c0,3 0,5 -1,6 -2,2 -3,2 -5,2 -2,0 -3,0 -4,-1l0 7 -3 0 0 -22 2 0 0 2c2,-1 3,-2 5,-2 2,0 3,1 5,2 1,2 1,4 1,6l0 0zm-3 0c0,-2 0,-3 -1,-4 0,-1 -1,-2 -3,-2 -1,0 -3,1 -3,3l0 7c0,1 2,2 3,2 2,0 3,0 3,-1 1,-1 1,-3 1,-5z"/>
  <path id="26" class="fil3" d="M130 133c-2,0 -4,0 -5,-2 -1,-1 -2,-3 -2,-5l0 -1c0,-1 0,-3 1,-4 0,-1 1,-2 2,-3 1,-1 3,-1 4,-1 2,0 3,1 5,2 1,1 1,3 1,6l0 1 -10 0c0,2 0,3 1,4 1,1 2,1 3,1 1,0 2,0 3,0 0,-1 1,-1 1,-2l2 1c-1,2 -3,3 -6,3zm0 -14c-1,0 -2,1 -3,1 -1,1 -1,2 -1,4l8 0 0 0c0,-2 -1,-3 -2,-4 0,0 -1,-1 -2,-1z"/>
  <path id="27" class="fil3" d="M148 122c0,-1 0,-2 -1,-2 0,-1 -1,-1 -2,-1 -1,0 -2,1 -2,1 -1,0 -1,1 -1,2l-3 0c0,-2 0,-3 2,-4 1,0 2,-1 4,-1 2,0 3,0 4,1 1,1 2,2 2,4 0,0 0,1 -1,2 0,0 -1,1 -2,1 2,1 3,2 3,4 0,1 -1,2 -2,3 -1,1 -2,1 -4,1 -2,0 -3,0 -5,-1 -1,-1 -1,-2 -1,-4l2 0c0,1 1,2 1,2 1,1 2,1 3,1 1,0 2,0 2,0 1,-1 1,-2 1,-2 0,-1 0,-2 0,-2 -1,-1 -2,-1 -3,-1l-3 0 0 -2 3 0c2,0 3,-1 3,-2z"/>
  <polygon id="28" class="fil3" points="159,126 157,126 157,133 155,133 155,117 157,117 157,124 159,124 165,117 168,117 162,125 168,133 165,133 "/>
  <polygon id="29" class="fil3" points="181,117 183,117 183,133 181,133 181,122 174,133 171,133 171,117 174,117 174,129 "/>
  <polygon id="30" class="fil3" points="204,130 210,117 213,117 213,133 210,133 210,122 205,133 203,133 198,121 198,133 195,133 195,117 199,117 "/>
  <path id="31" class="fil3" d="M224 133c-2,0 -4,0 -5,-2 -2,-1 -2,-3 -2,-5l0 -1c0,-1 0,-3 1,-4 0,-1 1,-2 2,-3 1,-1 2,-1 3,-1 3,0 4,1 5,2 1,1 2,3 2,6l0 1 -11 0c0,2 1,3 2,4 1,1 2,1 3,1 1,0 2,0 2,0 1,-1 2,-1 2,-2l2 1c-2,2 -4,3 -6,3zm-1 -14c-1,0 -1,1 -2,1 -1,1 -1,2 -2,4l8 0 0 0c0,-2 0,-3 -1,-4 0,0 -1,-1 -3,-1z"/>
  <polygon id="32" class="fil3" points="245,120 239,120 239,133 237,133 237,120 231,120 231,117 245,117 "/>
  <path id="33" class="fil3" d="M257 133c0,0 -1,-1 -1,-2 -1,2 -2,2 -4,2 -2,0 -3,0 -4,-1 -1,-1 -1,-2 -1,-3 0,-2 0,-3 1,-4 2,-1 3,-1 6,-1l2 0 0 -2c0,-1 0,-1 -1,-2 0,0 -1,-1 -2,-1 -1,0 -2,1 -2,1 -1,0 -1,1 -1,2l-3 0c0,-1 0,-2 1,-3 0,0 1,-1 2,-1 1,-1 2,-1 3,-1 2,0 3,1 4,1 1,1 2,3 2,4l0 7c0,2 0,3 1,4l0 0 -3 0zm-5 -2c1,0 2,0 3,-1 0,0 1,-1 1,-1l0 -4 -2 0c-3,0 -5,1 -5,3 0,1 1,2 1,2 1,1 1,1 2,1z"/>
  <path id="34" class="fil3" d="M276 117l0 16 -3 0 0 -13 -5 0 0 6c0,2 -1,4 -2,5 0,1 -2,2 -3,2l-1 0 0 -2 1 0c0,0 1,-1 1,-2 1,-1 1,-2 1,-5l0 -7 11 0z"/>
  <path id="35" class="fil3" d="M293 117l0 16 -2 0 0 -13 -6 0 0 6c0,2 -1,4 -1,5 -1,1 -2,2 -4,2l-1 0 0 -2 1 0c1,0 1,-1 2,-2 0,-1 0,-2 0,-5l1 -7 10 0z"/>
  <path id="36" class="fil3" d="M307 133c0,0 0,-1 0,-2 -1,2 -3,2 -4,2 -2,0 -3,0 -4,-1 -1,-1 -2,-2 -2,-3 0,-2 1,-3 2,-4 1,-1 3,-1 5,-1l3 0 0 -2c0,-1 0,-1 -1,-2 0,0 -1,-1 -2,-1 -1,0 -2,1 -3,1 0,0 -1,1 -1,2l-2 0c0,-1 0,-2 0,-3 1,0 2,-1 3,-1 1,-1 2,-1 3,-1 2,0 3,1 4,1 1,1 2,3 2,4l0 7c0,2 0,3 0,4l0 0 -3 0zm-4 -2c1,0 2,0 2,-1 1,0 2,-1 2,-1l0 -4 -2 0c-3,0 -5,1 -5,3 0,1 0,2 1,2 0,1 1,1 2,1z"/>
 </g>
</svg>
